# xmcd
#
# Track frame offsets:
#	150
#	16467
#	33907
#	52285
#	70167
#	92042
#	107242
#	121527
#	135405
#	153097
#	166500
#	181747
#	194597
#	207562
#	221967
#	236462
#	253915
#	270267
#	284370
#	301395
#	316317
#
# Disc length: 4386 seconds
# Revision: 0
# Processed by: cddbd v1.5.2PL0 Copyright (c) Steve Scherf et al.
# Submitted via: dBpowerAMP V12.0
#
DISCID=28112015
DTITLE=Various Artist - Country
DYEAR=1993
DGENRE=Country
TTITLE0=LACY J. DALTON - Black Coffee
TTITLE1=CLINT BLACK - Burn One Down
TTITLE2=LITTLE TEXAS - First Time For Everything
TTITLE3=REBA MCENTIRE - He Wants To Get Married
TTITLE4=STEPHEN ALLEN DAVIS - Highway, Highway
TTITLE5=BILLY DEAN - If There Hadn't Been You
TTITLE6=T. GRAHAM BROWN - If You Could Only See Me Now
TTITLE7=TANYA TUCKER - If Your Heart Ain't Busy Tonight
TTITLE8=REBA MCENTIRE - Is There Life Out There
TTITLE9=TANYA TUCKER - It Won't Be Me
TTITLE10=PATTY LOVELESS - Jealous Bone
TTITLE11=CLINT BLACK - Killin' Time
TTITLE12=THE OAK RIDGE BOYS - No Matter How High
TTITLE13=SHENANDOAH - Rock My Baby
TTITLE14=PIRATES OF THE MISSISSIPPI - Rollin' Home
TTITLE15=KATHY MATTEA  - Seeds
TTITLE16=LORRIE MORGAN - Watch Me
TTITLE17=LORRIE MORGAN - We Both Walk
TTITLE18=LITTLE TEXAS - You And Forever And Me
TTITLE19=BILLY DEAN - You Don't Count The Cost
TTITLE20=HOLLY DUNN - You Really Had Me Going
EXTD=
EXTT0=
EXTT1=
EXTT2=
EXTT3=
EXTT4=
EXTT5=
EXTT6=
EXTT7=
EXTT8=
EXTT9=
EXTT10=
EXTT11=
EXTT12=
EXTT13=
EXTT14=
EXTT15=
EXTT16=
EXTT17=
EXTT18=
EXTT19=
EXTT20=
PLAYORDER=
